<svg width="24" height="24" viewBox="0 0 24 24" fill="none" xmlns="http://www.w3.org/2000/svg">
<path d="M21.9153 8.42553C21.4915 5.95745 19.3729 4 16.8305 4C15.6441 4 14.6271 4.34043 13.7797 5.02128C13.017 5.61702 12.4237 6.38298 12.0847 7.23404C11.7458 6.38298 11.1525 5.61702 10.3898 5.10638C9.45763 4.42553 8.35593 4 7.16949 4C4.88136 4 2.9322 5.53191 2.25424 7.57447C2.08475 8.08511 2 8.68085 2 9.19149C2 10.1277 2.25424 10.9787 2.67797 11.7447C3.1017 12.5106 3.77966 13.4468 4.88136 14.6383C6.23729 16 10.9831 20.1702 11.9153 20.9362C12 21.0213 12.0847 21.0213 12.1695 20.9362C13.017 20.0851 17.8475 16 19.2034 14.6383C21.1525 12.5957 21.7458 11.4043 21.9153 10.2979C22 9.95745 22 9.61702 22 9.2766C22 8.93617 22 8.68085 21.9153 8.42553Z" fill="#227146"/>
</svg>
