<svg width="24" height="24" viewBox="0 0 24 24" fill="none" xmlns="http://www.w3.org/2000/svg">
<path d="M21.8 8.56477C21.3882 6.17654 19.247 4.20007 16.7765 4.20007C15.6235 4.20007 14.6353 4.52948 13.7294 5.18831C12.9882 5.76477 12.4118 6.50595 12.0824 7.32948C11.7529 6.50595 11.1765 5.76477 10.4353 5.27066C9.44707 4.61184 8.37648 4.20007 7.22354 4.20007C5.00002 4.20007 3.02356 5.68242 2.36473 7.74124C2.20003 8.23536 2.11768 8.81182 2.11768 9.30594C2.11768 10.2118 2.36473 11.0353 2.7765 11.8589C3.18826 12.6 3.84708 13.5059 4.91767 14.7412C6.23531 16.0589 10.9294 20.1765 11.8353 20.9177C11.9176 21 11.9176 21 12 21C12.0824 21 12.0824 21 12.1647 20.9177C12.9882 20.0941 17.7647 16.0589 19.0823 14.7412C20.9764 12.7648 21.6353 11.5295 21.8 10.4589C21.8823 10.0471 21.8823 9.7177 21.8823 9.38829C21.8823 9.05888 21.8823 8.72947 21.8 8.56477ZM20.1529 10.1295C20.0706 10.7059 19.7412 11.6118 17.9294 13.5059C17.1882 14.2471 15.3765 15.8118 13.8118 17.1294C13.0706 17.7883 12.4118 18.3647 11.9176 18.7765C10.1882 17.2942 7.05884 14.5765 6.07061 13.5059C5.16473 12.5177 4.5059 11.6942 4.17649 11.0353C3.92944 10.4589 3.76473 9.88241 3.76473 9.30594C3.76473 8.97653 3.84708 8.56477 3.92944 8.23536C4.42355 6.83536 5.74119 5.84713 7.22354 5.84713C8.21178 5.84713 8.95295 6.25889 9.44707 6.5883C11.0941 7.74124 11.0118 9.14123 12.0824 9.14123C13.1529 9.14123 13.1529 7.74124 14.8 6.50595C15.3765 6.09419 15.9529 5.84713 16.7765 5.84713C18.4235 5.84713 19.9059 7.16477 20.1529 8.81182C20.2353 9.30594 20.2353 9.96476 20.1529 10.1295Z" fill="#657076"/>
</svg>
