<svg width="24" height="24" viewBox="0 0 24 24" fill="none" xmlns="http://www.w3.org/2000/svg">
<path d="M21 4.99998H12.2C11.6 4.99998 11 4.49998 11 3.79998C11 3.09998 11.6 2.59998 12.2 2.59998H21V4.99998ZM4.2 18.5H17.7C18.4 18.5 18.9 19.1 18.9 19.7C18.9 20.4 18.3 20.9 17.7 20.9H4.2C3.6 21 3 20.4 3 19.8C3 19.1 3.6 18.5 4.2 18.5Z" fill="#227146"/>
<path d="M17.8 15C18.5 15 19 15.5 19 16.2V19.8C19 20.5 18.4 21 17.8 21C17.1 21 16.6 20.5 16.6 19.8V16.2C16.5 15.5 17.1 15 17.8 15ZM9 6.3C9 7 8.5 7.5 7.8 7.5H4.2C3.5 7.5 3 6.9 3 6.3C3 5.6 3.5 5 4.2 5H7.8C8.5 5 9 5.6 9 6.3Z" fill="#227146"/>
<path d="M3 19.8V6.2C3 5.6 3.6 5 4.2 5C4.9 5 5.4 5.6 5.4 6.2V19.7C5.4 20.4 4.8 20.9 4.2 20.9C3.6 21 3 20.4 3 19.8ZM21 2.5V11.3C21 12 20.4 12.5 19.8 12.5C19.1 12.5 18.6 11.9 18.6 11.3V2.5H21Z" fill="#227146"/>
<path d="M21 4.3L11.8 13.5C11.3 14 10.5 14 10 13.5C9.5 13 9.5 12.2 10 11.7L19.2 2.5L21 4.3Z" fill="#227146"/>
</svg>
